<svg width="37" height="19" viewBox="0 0 37 19" fill="none" xmlns="http://www.w3.org/2000/svg">
<path d="M11.5586 15L11.1836 14.625L11.9336 13.875H13.8086L14.5586 14.625L14.1836 15H11.5586ZM14.7461 14.4375L13.9961 13.6875V11.8125L14.7461 11.0625L15.1211 11.4375V14.0625L14.7461 14.4375ZM11.9336 11.625L11.3711 11.0625L11.9336 10.5H13.8086L14.3711 11.0625L13.8086 11.625H11.9336ZM10.9961 11.0625L10.6211 10.6875V8.0625L10.9961 7.6875L11.7461 8.4375V10.3125L10.9961 11.0625ZM11.9336 8.25L11.1836 7.5L11.5586 7.125H14.1836L14.5586 7.5L13.8086 8.25H11.9336ZM16.375 14.4375L16 14.0625V11.4375L16.375 11.0625L17.125 11.8125V13.6875L16.375 14.4375ZM16.375 11.0625L16 10.6875V8.0625L16.375 7.6875L17.125 8.4375V10.3125L16.375 11.0625Z" fill="#A62639"/>
<path d="M19.4375 15L19.0625 14.625L19.8125 13.875H21.6875L22.4375 14.625L22.0625 15H19.4375ZM22.625 14.4375L21.875 13.6875V11.8125L22.625 11.0625L23 11.4375V14.0625L22.625 14.4375ZM19.8125 11.625L19.25 11.0625L19.8125 10.5H21.6875L22.25 11.0625L21.6875 11.625H19.8125ZM18.875 11.0625L18.5 10.6875V8.0625L18.875 7.6875L19.625 8.4375V10.3125L18.875 11.0625ZM19.8125 8.25L19.0625 7.5L19.4375 7.125H22.0625L22.4375 7.5L21.6875 8.25H19.8125Z" fill="#A62639"/>
<path d="M5.73206 18.528C4.75073 18.5173 3.9774 18.304 3.41206 17.888C2.84673 17.472 2.56406 16.8373 2.56406 15.984V13.632C2.56406 13.088 2.3934 12.704 2.05206 12.48C1.7214 12.2453 1.2414 12.128 0.612063 12.128V10.96C1.2414 10.9493 1.7214 10.832 2.05206 10.608C2.3934 10.384 2.56406 10.0053 2.56406 9.472V7.104C2.56406 6.25067 2.8574 5.616 3.44406 5.2C4.03073 4.784 4.7934 4.576 5.73206 4.576V5.728C5.1774 5.73867 4.74006 5.86133 4.42006 6.096C4.11073 6.33067 3.95606 6.70933 3.95606 7.232V9.536C3.95606 10.6347 3.37473 11.2853 2.21206 11.488V11.584C3.37473 11.7867 3.95606 12.4373 3.95606 13.536V15.888C3.95606 16.4107 4.11073 16.784 4.42006 17.008C4.7294 17.2427 5.16673 17.3653 5.73206 17.376V18.528ZM28.2698 17.376C28.8245 17.3547 29.2565 17.2267 29.5658 16.992C29.8858 16.768 30.0458 16.3947 30.0458 15.872V13.552C30.0458 12.4533 30.6271 11.8027 31.7898 11.6V11.504C30.6271 11.3013 30.0458 10.6507 30.0458 9.552V7.216C30.0458 6.69333 29.8911 6.32 29.5818 6.096C29.2725 5.86133 28.8351 5.73867 28.2698 5.728V4.576C29.2511 4.58667 30.0245 4.8 30.5898 5.216C31.1551 5.632 31.4378 6.26667 31.4378 7.12V9.456C31.4378 10 31.6031 10.3893 31.9338 10.624C32.2751 10.848 32.7605 10.96 33.3898 10.96V12.128C32.7605 12.1387 32.2751 12.256 31.9338 12.48C31.6031 12.704 31.4378 13.0827 31.4378 13.616V16C31.4378 16.8427 31.1445 17.472 30.5578 17.888C29.9711 18.3147 29.2085 18.528 28.2698 18.528V17.376Z" fill="#A62639"/>
<path d="M32.9657 0.0020752C30.9397 0.00207534 31.0662 0.88412 31.0662 0.88412L31.0685 1.79791H33.0019V2.07227H30.3006C30.3006 2.07227 29.0041 1.92467 29.0041 3.97695C29.0041 6.02922 30.1357 5.95645 30.1357 5.95645H30.811V5.00411C30.811 5.00411 30.7746 3.86811 31.9245 3.86811H33.8421C33.8421 3.86811 34.9194 3.88559 34.9194 2.82281V1.06552C34.9194 1.06552 35.083 0.0020752 32.9657 0.0020752ZM31.8997 0.616559C32.092 0.616559 32.2475 0.772639 32.2475 0.965749C32.2475 1.15886 32.092 1.31494 31.8997 1.31494C31.7073 1.31494 31.5518 1.15886 31.5518 0.965749C31.5518 0.772639 31.7073 0.616559 31.8997 0.616559Z" fill="url(#paint0_linear)"/>
<path d="M33.0236 7.97257C35.0497 7.97257 34.9231 7.09053 34.9231 7.09053L34.9209 6.17674H32.9875V5.90238H35.6888C35.6888 5.90238 36.9852 6.04998 36.9852 3.9977C36.9852 1.94542 35.8537 2.0182 35.8537 2.0182H35.1784V2.97054C35.1784 2.97054 35.2148 4.10654 34.0649 4.10654H32.1473C32.1473 4.10654 31.0699 4.08906 31.0699 5.15184V6.90913C31.0699 6.90913 30.9064 7.97257 33.0236 7.97257ZM34.0897 7.35809C33.8974 7.35809 33.7419 7.20201 33.7419 7.0089C33.7419 6.81579 33.8974 6.65971 34.0897 6.65971C34.2821 6.65971 34.4375 6.81579 34.4375 7.0089C34.4375 7.20201 34.2821 7.35809 34.0897 7.35809Z" fill="url(#paint1_linear)"/>
<defs>
<linearGradient id="paint0_linear" x1="29.7711" y1="0.718984" x2="33.7414" y2="4.63431" gradientUnits="userSpaceOnUse">
<stop stop-color="#387EB8"/>
<stop offset="1" stop-color="#366994"/>
</linearGradient>
<linearGradient id="paint1_linear" x1="32.199" y1="3.24331" x2="36.4619" y2="7.25742" gradientUnits="userSpaceOnUse">
<stop stop-color="#FFE052"/>
<stop offset="1" stop-color="#FFC331"/>
</linearGradient>
</defs>
</svg>
